<?xml version="1.0" encoding="utf-8"?>
<!-- Generator: Adobe Illustrator 14.0.0, SVG Export Plug-In . SVG Version: 6.00 Build 43363)  -->
<!DOCTYPE svg PUBLIC "-//W3C//DTD SVG 1.1//EN" "http://www.w3.org/Graphics/SVG/1.1/DTD/svg11.dtd">
<svg version="1.1" id="Ebene_1" xmlns="http://www.w3.org/2000/svg" xmlns:xlink="http://www.w3.org/1999/xlink" x="0px" y="0px"
	 width="303.31px" height="102.05px" viewBox="0 0 303.31 102.05" enable-background="new 0 0 303.31 102.05" xml:space="preserve">
<g>
	<g>
		<path fill="#1A171B" d="M150.066,16.265c-0.672,0.293-1.154,0.42-3.023,0.42h-3.233V2.28h1.806c2.478,0,2.75,0.127,3.422,0.315
			c1.365,0.378,2.436,1.827,2.436,3.296c0,1.491-0.944,2.771-2.456,3.171c0.776,0.168,1.448,0.356,1.868,0.735
			c0.819,0.713,1.135,1.889,1.135,2.939C152.02,14.312,151.284,15.718,150.066,16.265z M148.281,3.729
			c-0.356-0.105-0.629-0.126-1.26-0.126h-1.764v4.935h1.953c1.596,0,1.974-0.42,2.414-1.303c0.168-0.314,0.189-0.797,0.189-1.196
			C149.814,4.905,149.143,3.981,148.281,3.729z M148.576,9.966c-0.357-0.043-0.693-0.127-1.323-0.127h-1.995v5.564h2.457
			c1.974,0,2.688-1.092,2.688-2.813C150.402,11.33,149.646,10.091,148.576,9.966z"/>
		<path fill="#1A171B" d="M154.75,16.685V2.28h6.846l-0.252,1.303h-5.082v4.934h4.305v1.322h-4.305v5.502h5.522v1.344H154.75z"/>
		<path fill="#1A171B" d="M171.045,15.886c-0.777,0.756-1.785,1.051-3.297,1.051c-1.932,0-3.044-0.588-3.716-2.016
			c-0.336-0.693-0.356-1.512-0.356-2.143V2.28h1.469v9.869c0,0.713,0.063,1.637,0.231,2.078c0.231,0.63,0.903,1.406,2.436,1.406
			c1.05,0,1.848-0.314,2.226-0.902c0.42-0.65,0.462-1.281,0.462-2.246V2.28h1.491v10.414
			C171.99,14.438,171.801,15.151,171.045,15.886z"/>
		<path fill="#1A171B" d="M181.923,3.646h-3.443v13.039h-1.448V3.646h-3.359V2.28h8.293L181.923,3.646z"/>
		<path fill="#1A171B" d="M190.176,16.685V9.63h-5.27v7.055h-1.471V2.28h1.471v6.11h5.27V2.28h1.49v14.404H190.176z"/>
		<path fill="#1A171B" d="M205.967,16.685V9.63h-5.27v7.055h-1.47V2.28h1.47v6.11h5.27V2.28h1.491v14.404H205.967z"/>
		<path fill="#1A171B" d="M218.42,15.571c-0.924,0.966-1.869,1.386-3.17,1.386c-1.533,0-2.73-0.714-3.57-1.827
			c-0.986-1.301-1.49-3.254-1.49-5.711c0-4.576,1.89-7.391,4.977-7.391c2.184,0,3.338,1.323,3.947,2.352
			c0.776,1.344,1.133,3.023,1.133,5.334C220.246,12.485,219.701,14.228,218.42,15.571z M217.958,5.22
			c-0.44-1.07-1.344-1.932-2.792-1.932c-1.176,0-2.205,0.609-2.688,1.639c-0.441,0.944-0.631,2.352-0.631,4.136
			c0,2.163,0.295,4.22,0.799,5.187c0.482,0.924,1.637,1.532,2.666,1.532s1.764-0.399,2.33-1.218
			c0.631-0.902,0.924-2.226,0.924-4.598C218.566,7.845,218.378,6.228,217.958,5.22z"/>
		<path fill="#1A171B" d="M227.471,16.853c-1.133,0-2.834-0.651-3.632-1.827c-0.966-1.428-1.491-2.667-1.491-5.501
			c0-4.283,2.205-7.433,5.271-7.433c1.196,0,2.31,0.483,3.171,1.239l-0.861,1.008c-0.756-0.631-1.406-0.967-2.33-0.967
			c-3.129,0-3.633,4.074-3.633,6.404c0,1.386-0.042,1.932,0.42,3.065c0.693,1.722,1.932,2.771,3.359,2.771
			c0.924,0,1.638-0.188,2.436-0.776l0.714,1.049C229.886,16.642,228.71,16.853,227.471,16.853z"/>
		<path fill="#1A171B" d="M239.525,16.685V9.63h-5.27v7.055h-1.471V2.28h1.471v6.11h5.27V2.28h1.49v14.404H239.525z"/>
		<path fill="#1A171B" d="M247.338,16.957c-1.49,0-2.771-0.42-4.01-1.302l0.734-1.218c1.05,0.86,2.016,1.196,3.275,1.196
			c1.658,0,2.897-0.84,2.897-2.498c0-1.281-0.483-2.016-1.911-2.75l-1.532-0.777c-1.448-0.734-3.087-1.658-3.087-3.801
			c0-2.1,1.617-3.842,4.053-3.842c1.344,0,2.582,0.462,3.779,1.386l-0.734,1.112c-1.197-0.902-1.891-1.196-2.961-1.196
			c-1.574,0-2.52,0.903-2.52,2.184c0,1.364,0.378,1.89,1.994,2.708l1.639,0.84c1.764,0.903,2.939,1.911,2.939,3.885
			C251.895,15.466,249.815,16.957,247.338,16.957z"/>
		<path fill="#1A171B" d="M258.803,16.853c-1.133,0-2.834-0.651-3.632-1.827c-0.966-1.428-1.491-2.667-1.491-5.501
			c0-4.283,2.205-7.433,5.271-7.433c1.196,0,2.31,0.483,3.171,1.239l-0.861,1.008c-0.756-0.631-1.406-0.967-2.33-0.967
			c-3.129,0-3.633,4.074-3.633,6.404c0,1.386-0.042,1.932,0.42,3.065c0.693,1.722,1.932,2.771,3.359,2.771
			c0.924,0,1.638-0.188,2.436-0.776l0.714,1.049C261.218,16.642,260.042,16.853,258.803,16.853z"/>
		<path fill="#1A171B" d="M270.857,16.685V9.63h-5.271v7.055h-1.47V2.28h1.47v6.11h5.271V2.28h1.49v14.404H270.857z"/>
		<path fill="#1A171B" d="M282.974,15.886c-0.776,0.756-1.784,1.051-3.296,1.051c-1.932,0-3.045-0.588-3.717-2.016
			c-0.336-0.693-0.357-1.512-0.357-2.143V2.28h1.471v9.869c0,0.713,0.063,1.637,0.23,2.078c0.23,0.63,0.902,1.406,2.436,1.406
			c1.05,0,1.848-0.314,2.226-0.902c0.42-0.65,0.462-1.281,0.462-2.246V2.28h1.49v10.414
			C283.918,14.438,283.729,15.151,282.974,15.886z"/>
		<path fill="#1A171B" d="M293.411,16.685h-6.236V2.28h1.49v13.039h4.955L293.411,16.685z"/>
		<path fill="#1A171B" d="M295.302,16.685V2.28h6.845l-0.252,1.303h-5.081v4.934h4.305v1.322h-4.305v5.502h5.521v1.344H295.302z"/>
		<path fill="#1A171B" d="M150.15,28.583h-4.829v4.934h4.011v1.26h-4.011v6.908h-1.512V27.28h6.593L150.15,28.583z"/>
		<path fill="#1A171B" d="M159.139,40.886c-0.777,0.756-1.785,1.051-3.297,1.051c-1.932,0-3.045-0.588-3.717-2.016
			c-0.336-0.693-0.356-1.512-0.356-2.143V27.28h1.47v9.869c0,0.713,0.063,1.637,0.23,2.078c0.231,0.63,0.903,1.406,2.436,1.406
			c1.051,0,1.848-0.314,2.227-0.902c0.42-0.65,0.461-1.281,0.461-2.246V27.28h1.491v10.414
			C160.083,39.438,159.895,40.151,159.139,40.886z M154.036,26.104c-0.546,0-1.008-0.482-1.008-1.028s0.44-0.987,0.987-0.987
			c0.545,0,1.008,0.441,1.008,0.987S154.582,26.104,154.036,26.104z M157.815,26.104c-0.546,0-1.008-0.482-1.008-1.028
			s0.44-0.987,0.987-0.987c0.545,0,1.008,0.441,1.008,0.987S158.361,26.104,157.815,26.104z"/>
		<path fill="#1A171B" d="M169.491,41.685c-0.356-0.945-1.554-3.15-3.212-5.586c-0.483-0.713-0.819-0.965-1.449-0.986v6.572h-1.49
			V27.28h2.918c1.722,0,2.562,0.357,3.17,0.924c0.567,0.525,1.239,1.491,1.239,3.023c0,2.373-1.323,3.885-3.317,3.885h-0.189
			c0.588,0.546,1.008,1.281,1.26,1.68c0.525,0.818,2.877,4.893,2.877,4.893H169.491z M167.875,28.897
			c-0.399-0.189-0.903-0.314-1.575-0.314h-1.448v5.5l1.637,0.021c1.113,0.021,1.491-0.273,1.975-0.777
			c0.42-0.44,0.629-1.176,0.629-2.12S168.588,29.233,167.875,28.897z"/>
		<path fill="#1A171B" d="M183.854,28.646h-3.443v13.039h-1.448V28.646h-3.359V27.28h8.293L183.854,28.646z"/>
		<path fill="#1A171B" d="M185.367,41.685V27.28h6.846l-0.252,1.303h-5.082v4.934h4.305v1.322h-4.305v5.502h5.522v1.344H185.367z"/>
		<path fill="#1A171B" d="M198.576,41.853c-1.134,0-2.834-0.651-3.633-1.827c-0.965-1.428-1.49-2.667-1.49-5.501
			c0-4.283,2.205-7.433,5.27-7.433c1.197,0,2.311,0.483,3.171,1.239l-0.86,1.008c-0.756-0.631-1.407-0.967-2.331-0.967
			c-3.128,0-3.632,4.074-3.632,6.404c0,1.386-0.043,1.932,0.42,3.065c0.692,1.722,1.932,2.771,3.359,2.771
			c0.924,0,1.637-0.188,2.436-0.776l0.713,1.049C200.99,41.642,199.814,41.853,198.576,41.853z"/>
		<path fill="#1A171B" d="M210.63,41.685V34.63h-5.271v7.055h-1.469V27.28h1.469v6.11h5.271v-6.11h1.491v14.404H210.63z"/>
		<path fill="#1A171B" d="M222.201,41.685l-3.927-8.861c-0.776-1.764-1.491-3.632-1.491-3.632s0.168,2.268,0.189,4.136l0.063,8.357
			h-1.553V27.28h1.784l4.157,9.386c0.588,1.344,1.092,2.876,1.154,3.044c-0.021-0.084-0.168-2.561-0.188-4.598l-0.063-7.832h1.491
			v14.404H222.201z"/>
		<path fill="#1A171B" d="M227.179,41.685V27.28h1.47v14.404H227.179z"/>
		<path fill="#1A171B" d="M232.009,41.685V27.28h1.512v14.404H232.009z M235.305,34.042l4.998,7.643h-1.848l-4.787-7.622
			l4.828-6.782h1.848L235.305,34.042z"/>
		<path fill="#1A171B" d="M150.066,66.264c-0.672,0.294-1.154,0.42-3.023,0.42h-3.233V52.28h1.806c2.478,0,2.75,0.126,3.422,0.315
			c1.365,0.377,2.436,1.826,2.436,3.296c0,1.491-0.944,2.771-2.456,3.171c0.776,0.168,1.448,0.356,1.868,0.734
			c0.819,0.714,1.135,1.89,1.135,2.939C152.02,64.311,151.284,65.718,150.066,66.264z M148.281,53.729
			c-0.356-0.104-0.629-0.125-1.26-0.125h-1.764v4.934h1.953c1.596,0,1.974-0.42,2.414-1.302c0.168-0.315,0.189-0.798,0.189-1.196
			C149.814,54.904,149.143,53.98,148.281,53.729z M148.576,59.965c-0.357-0.042-0.693-0.126-1.323-0.126h-1.995v5.563h2.457
			c1.974,0,2.688-1.092,2.688-2.813C150.402,61.33,149.646,60.091,148.576,59.965z"/>
		<path fill="#1A171B" d="M154.75,66.684V52.28h6.846l-0.252,1.302h-5.082v4.934h4.305v1.323h-4.305v5.501h5.522v1.344H154.75z"/>
		<path fill="#1A171B" d="M170.037,66.684c-0.357-0.945-1.554-3.149-3.213-5.585c-0.482-0.714-0.818-0.966-1.448-0.987v6.572h-1.491
			V52.28h2.919c1.722,0,2.562,0.356,3.171,0.924c0.566,0.524,1.238,1.491,1.238,3.023c0,2.372-1.322,3.884-3.317,3.884h-0.188
			c0.588,0.547,1.008,1.281,1.26,1.68c0.524,0.819,2.876,4.893,2.876,4.893H170.037z M168.42,53.896
			c-0.398-0.188-0.902-0.314-1.574-0.314h-1.449v5.501l1.639,0.021c1.112,0.021,1.49-0.272,1.973-0.776
			c0.42-0.44,0.631-1.176,0.631-2.12C169.639,55.262,169.135,54.232,168.42,53.896z"/>
		<path fill="#1A171B" d="M179.97,66.684h-6.235V52.28h1.49v13.038h4.955L179.97,66.684z"/>
		<path fill="#1A171B" d="M181.861,66.684V52.28h1.469v14.403H181.861z"/>
		<path fill="#1A171B" d="M193.41,66.684l-3.927-8.86c-0.776-1.764-1.491-3.632-1.491-3.632s0.168,2.268,0.189,4.136l0.063,8.356
			h-1.553V52.28h1.784l4.157,9.386c0.588,1.344,1.092,2.876,1.154,3.044c-0.021-0.084-0.168-2.562-0.188-4.599l-0.063-7.831h1.491
			v14.403H193.41z"/>
		<path fill="#1A171B" d="M148.305,97.133c-0.536,0.521-1.232,0.725-2.275,0.725c-1.334,0-2.102-0.406-2.566-1.392
			c-0.231-0.479-0.246-1.044-0.246-1.479v-7.248h1.016v6.813c0,0.492,0.043,1.131,0.158,1.435c0.16,0.436,0.624,0.972,1.682,0.972
			c0.725,0,1.276-0.218,1.537-0.623c0.29-0.45,0.318-0.885,0.318-1.552v-7.045h1.029v7.19
			C148.957,96.133,148.827,96.625,148.305,97.133z"/>
		<path fill="#1A171B" d="M154.83,97.684V92.74c0-0.768-0.058-1.029-0.231-1.275c-0.13-0.188-0.405-0.305-0.696-0.305
			c-0.507,0-1.246,0.377-1.739,0.942v5.581h-0.956v-5.566c0-1.029-0.232-1.565-0.232-1.565l0.957-0.261c0,0,0.217,0.362,0.217,0.956
			c0.74-0.725,1.319-0.941,1.986-0.941c0.508,0,0.971,0.231,1.275,0.608c0.305,0.362,0.406,0.826,0.406,1.29v5.479H154.83z"/>
		<path fill="#1A171B" d="M158.602,89.175c-0.464,0-0.841-0.377-0.841-0.841s0.377-0.841,0.841-0.841s0.841,0.377,0.841,0.841
			S159.065,89.175,158.602,89.175z M158.138,97.684V90.45l1.029-0.145v7.378H158.138z"/>
		<path fill="#1A171B" d="M163.574,97.756h-1l-2.247-7.248l1.015-0.231l1.436,4.972c0.159,0.551,0.333,1.334,0.361,1.45
			c0-0.059,0.102-0.696,0.291-1.29l1.508-4.943h1L163.574,97.756z"/>
		<path fill="#1A171B" d="M167.722,94.219v0.174c0,0.682,0.028,1.262,0.29,1.74c0.348,0.623,0.941,0.884,1.565,0.884
			c0.608,0,1.102-0.261,1.522-0.667l0.391,0.595c-0.551,0.58-1.305,0.898-2.116,0.898c-1.739,0-2.783-1.449-2.783-3.841
			c0-1.218,0.188-2.029,0.726-2.755c0.507-0.681,1.159-0.971,1.913-0.971c0.681,0,1.304,0.305,1.725,0.812
			c0.507,0.623,0.696,1.247,0.696,2.972v0.159H167.722z M170.331,91.697c-0.218-0.392-0.58-0.667-1.159-0.667
			c-0.986,0-1.406,0.956-1.45,2.449h2.885C170.592,92.697,170.52,92.045,170.331,91.697z"/>
		<path fill="#1A171B" d="M176.044,91.436c-0.058-0.028-0.188-0.058-0.29-0.058c-0.29,0-0.739,0.131-1.029,0.464
			c-0.275,0.319-0.348,0.565-0.348,1.087v4.755h-0.986v-5.566c0-1.059-0.231-1.58-0.231-1.58l0.985-0.261
			c0,0,0.262,0.479,0.218,1.087c0.479-0.782,1.116-1.116,1.783-1.116c0.159,0,0.333,0.072,0.333,0.072L176.044,91.436z"/>
		<path fill="#1A171B" d="M179.22,97.901c-0.798,0-1.667-0.275-2.305-0.726l0.405-0.753c0.639,0.449,1.275,0.681,1.972,0.681
			c0.769,0,1.276-0.565,1.276-1.333c0-0.652-0.537-1.001-1.131-1.218l-0.566-0.203c-0.956-0.348-1.71-0.942-1.71-1.942
			c0-1.305,0.928-2.218,2.232-2.218c0.652,0,1.377,0.231,1.913,0.58l-0.391,0.753c-0.551-0.304-1-0.521-1.551-0.521
			c-0.726,0-1.189,0.551-1.189,1.146c0,0.638,0.29,1.015,1.044,1.275l0.579,0.203c0.899,0.318,1.799,0.913,1.799,1.985
			C181.598,97.017,180.626,97.901,179.22,97.901z"/>
		<path fill="#1A171B" d="M183.803,89.175c-0.465,0-0.842-0.377-0.842-0.841s0.377-0.841,0.842-0.841c0.463,0,0.84,0.377,0.84,0.841
			S184.266,89.175,183.803,89.175z M183.338,97.684V90.45l1.029-0.145v7.378H183.338z"/>
		<path fill="#1A171B" d="M189.007,91.276h-1.349v4.784c0,0.797,0.189,1.072,0.813,1.072c0.275,0,0.377-0.029,0.564-0.131
			l0.189,0.624c-0.363,0.188-0.682,0.29-1.117,0.29c-0.332,0-0.564-0.088-0.811-0.203c-0.406-0.188-0.609-0.711-0.609-1.436v-5.001
			h-0.826v-0.812h0.826c0-0.696,0.102-1.855,0.102-1.855l1-0.232c0,0-0.102,1.131-0.102,2.088h1.58L189.007,91.276z"/>
		<path fill="#1A171B" d="M192.806,97.944c-0.421,1.45-0.913,2.319-2.015,2.624l-0.29-0.682c0.812-0.29,1.13-0.739,1.464-2.203
			l-0.406,0.058c-0.102-0.521-0.405-1.869-0.623-2.595l-1.377-4.522l0.928-0.377l1.334,4.683c0.159,0.565,0.361,1.623,0.391,1.971
			c0.015-0.058,0.275-1.116,0.436-1.695l1.246-4.74h1.072L192.806,97.944z"/>
		<path fill="#1A171B" d="M203.216,96.567c-0.479,0.884-1.247,1.305-2.188,1.305c-0.899,0-1.596-0.362-2.059-1.072
			c-0.436-0.667-0.667-1.624-0.667-2.77c0-1.159,0.246-2.116,0.695-2.769c0.464-0.667,1.146-1.015,1.986-1.015
			c1.044,0,1.725,0.522,2.159,1.232c0.393,0.652,0.58,1.536,0.58,2.711C203.723,95.161,203.535,95.973,203.216,96.567z
			 M202.303,91.958c-0.262-0.638-0.813-0.899-1.334-0.899c-0.551,0-1.072,0.275-1.29,0.754c-0.203,0.449-0.305,1.175-0.305,2.029
			c0,1.015,0.159,2.044,0.392,2.494c0.232,0.435,0.739,0.695,1.275,0.695c0.652,0,1.146-0.362,1.363-1.059
			c0.145-0.449,0.188-0.985,0.188-1.695C202.592,93.263,202.506,92.437,202.303,91.958z"/>
		<path fill="#1A171B" d="M208.262,88.275c-0.246-0.159-0.564-0.261-0.898-0.261c-0.551,0-0.855,0.508-0.855,1.334v1.146h1.74
			l-0.305,0.768h-1.436v6.422h-1.043v-6.422h-0.595v-0.768h0.595v-1.16c0-1.072,0.435-1.536,0.695-1.769
			c0.305-0.261,0.667-0.377,1.116-0.377c0.536,0,1.015,0.116,1.377,0.392L208.262,88.275z"/>
		<path fill="#1A171B" d="M216.541,97.684l-0.797-3.059h-3.232l-0.842,3.059h-1.058l2.841-9.944h1.465l2.797,9.944H216.541z
			 M214.135,88.565l-1.363,5.117h2.727L214.135,88.565z"/>
		<path fill="#1A171B" d="M223.545,96.553c-0.449,0.798-1.102,1.319-1.957,1.319c-0.739,0-1.232-0.348-1.725-0.841v3.45
			l-0.986,0.218V92.03c0-1.102-0.145-1.58-0.145-1.58l1-0.174c0,0,0.072,0.275,0.072,1.072c0.536-0.681,1.116-1.029,1.855-1.029
			c0.812,0,1.305,0.319,1.711,0.899c0.463,0.666,0.666,1.551,0.666,2.841C224.037,95.22,223.922,95.9,223.545,96.553z
			 M222.762,92.146c-0.203-0.493-0.58-0.899-1.218-0.899c-0.71,0-1.159,0.334-1.681,1.001v3.841
			c0.507,0.595,0.912,0.942,1.536,0.942c0.71,0,1.102-0.392,1.333-0.898c0.218-0.449,0.262-1.116,0.262-1.928
			C222.994,93.335,222.936,92.581,222.762,92.146z"/>
		<path fill="#1A171B" d="M230.52,96.553c-0.449,0.798-1.102,1.319-1.957,1.319c-0.739,0-1.232-0.348-1.725-0.841v3.45l-0.986,0.218
			V92.03c0-1.102-0.145-1.58-0.145-1.58l1-0.174c0,0,0.072,0.275,0.072,1.072c0.536-0.681,1.116-1.029,1.855-1.029
			c0.812,0,1.305,0.319,1.711,0.899c0.463,0.666,0.666,1.551,0.666,2.841C231.012,95.22,230.896,95.9,230.52,96.553z
			 M229.736,92.146c-0.203-0.493-0.58-0.899-1.218-0.899c-0.71,0-1.159,0.334-1.681,1.001v3.841
			c0.507,0.595,0.912,0.942,1.536,0.942c0.71,0,1.102-0.392,1.333-0.898c0.218-0.449,0.262-1.116,0.262-1.928
			C229.969,93.335,229.91,92.581,229.736,92.146z"/>
		<path fill="#1A171B" d="M233.942,97.828c-0.305,0-0.552-0.101-0.739-0.304c-0.203-0.203-0.305-0.508-0.305-1.029v-7.654
			c0-0.942-0.174-1.493-0.174-1.493l0.971-0.202c0,0,0.203,0.608,0.203,1.71v7.437c0,0.565,0.088,0.725,0.363,0.725
			c0.043,0,0.145-0.028,0.145-0.028l0.203,0.681C234.362,97.8,234.203,97.828,233.942,97.828z"/>
		<path fill="#1A171B" d="M236.683,89.175c-0.464,0-0.841-0.377-0.841-0.841s0.377-0.841,0.841-0.841s0.841,0.377,0.841,0.841
			S237.146,89.175,236.683,89.175z M236.219,97.684V90.45l1.029-0.145v7.378H236.219z"/>
		<path fill="#1A171B" d="M240.264,94.219v0.174c0,0.682,0.029,1.262,0.29,1.74c0.348,0.623,0.942,0.884,1.565,0.884
			c0.609,0,1.102-0.261,1.521-0.667l0.393,0.595c-0.551,0.58-1.305,0.898-2.117,0.898c-1.739,0-2.783-1.449-2.783-3.841
			c0-1.218,0.188-2.029,0.725-2.755c0.508-0.681,1.16-0.971,1.914-0.971c0.682,0,1.305,0.305,1.725,0.812
			c0.508,0.623,0.695,1.247,0.695,2.972v0.159H240.264z M242.873,91.697c-0.218-0.392-0.58-0.667-1.16-0.667
			c-0.985,0-1.406,0.956-1.449,2.449h2.885C243.134,92.697,243.062,92.045,242.873,91.697z"/>
		<path fill="#1A171B" d="M249.861,97.684c0,0-0.131-0.362-0.145-0.739c-0.406,0.521-0.87,0.841-1.652,0.841
			c-1.624,0-2.566-1.349-2.566-3.653c0-1.536,0.449-2.652,1.305-3.334c0.406-0.318,0.797-0.449,1.246-0.449
			c0.696,0,1.291,0.348,1.668,0.87c0,0-0.015-0.565-0.015-1.088v-3.029l0.985,0.174v8.074c0,1.247,0.044,1.914,0.188,2.334H249.861z
			 M249.688,91.914c-0.305-0.479-0.783-0.725-1.521-0.725c-0.493,0-0.914,0.261-1.175,0.754c-0.304,0.551-0.405,1.146-0.405,2.16
			c0,0.841,0.014,1.594,0.246,2c0.333,0.608,0.682,0.841,1.261,0.841c0.638,0,1.362-0.319,1.595-0.957V91.914z"/>
		<path fill="#1A171B" d="M257.808,97.872c-1.029,0-1.913-0.29-2.769-0.898l0.508-0.841c0.725,0.594,1.391,0.826,2.261,0.826
			c1.146,0,2.001-0.58,2.001-1.726c0-0.884-0.334-1.392-1.32-1.898l-1.058-0.536c-1-0.508-2.131-1.146-2.131-2.624
			c0-1.449,1.116-2.652,2.798-2.652c0.928,0,1.783,0.318,2.609,0.956l-0.508,0.769c-0.826-0.623-1.305-0.826-2.044-0.826
			c-1.087,0-1.739,0.623-1.739,1.508c0,0.941,0.261,1.305,1.377,1.869l1.131,0.58c1.218,0.623,2.029,1.319,2.029,2.682
			C260.953,96.843,259.518,97.872,257.808,97.872z"/>
		<path fill="#1A171B" d="M264.941,97.843c-0.898,0-1.565-0.318-2-1.043c-0.421-0.696-0.609-1.537-0.609-2.609
			c0-1.58,0.377-2.45,0.914-3.073c0.492-0.565,1.072-0.841,1.738-0.841c0.798,0,1.305,0.305,1.711,0.71l-0.508,0.667
			c-0.405-0.377-0.725-0.508-1.231-0.508c-0.493,0-0.928,0.262-1.203,0.855c-0.349,0.769-0.362,1.377-0.362,2.436
			c0,1.449,0.536,2.624,1.58,2.624c0.508,0,0.971-0.218,1.334-0.711l0.564,0.609C266.289,97.64,265.725,97.843,264.941,97.843z"/>
		<path fill="#1A171B" d="M268.64,89.175c-0.464,0-0.841-0.377-0.841-0.841s0.377-0.841,0.841-0.841s0.841,0.377,0.841,0.841
			S269.104,89.175,268.64,89.175z M268.176,97.684V90.45l1.029-0.145v7.378H268.176z"/>
		<path fill="#1A171B" d="M272.221,94.219v0.174c0,0.682,0.029,1.262,0.29,1.74c0.348,0.623,0.942,0.884,1.565,0.884
			c0.609,0,1.102-0.261,1.521-0.667l0.393,0.595c-0.551,0.58-1.305,0.898-2.117,0.898c-1.739,0-2.783-1.449-2.783-3.841
			c0-1.218,0.188-2.029,0.725-2.755c0.508-0.681,1.16-0.971,1.914-0.971c0.682,0,1.305,0.305,1.725,0.812
			c0.508,0.623,0.695,1.247,0.695,2.972v0.159H272.221z M274.83,91.697c-0.218-0.392-0.58-0.667-1.16-0.667
			c-0.985,0-1.406,0.956-1.449,2.449h2.885C275.091,92.697,275.019,92.045,274.83,91.697z"/>
		<path fill="#1A171B" d="M281.514,97.684V92.74c0-0.768-0.058-1.029-0.231-1.275c-0.13-0.188-0.405-0.305-0.696-0.305
			c-0.507,0-1.246,0.377-1.739,0.942v5.581h-0.956v-5.566c0-1.029-0.232-1.565-0.232-1.565l0.957-0.261c0,0,0.217,0.362,0.217,0.956
			c0.74-0.725,1.319-0.941,1.986-0.941c0.508,0,0.971,0.231,1.275,0.608c0.305,0.362,0.406,0.826,0.406,1.29v5.479H281.514z"/>
		<path fill="#1A171B" d="M286.996,97.843c-0.899,0-1.566-0.318-2.001-1.043c-0.421-0.696-0.608-1.537-0.608-2.609
			c0-1.58,0.377-2.45,0.913-3.073c0.493-0.565,1.073-0.841,1.739-0.841c0.798,0,1.305,0.305,1.711,0.71l-0.508,0.667
			c-0.405-0.377-0.725-0.508-1.232-0.508c-0.492,0-0.928,0.262-1.203,0.855c-0.348,0.769-0.361,1.377-0.361,2.436
			c0,1.449,0.535,2.624,1.579,2.624c0.508,0,0.972-0.218,1.334-0.711l0.565,0.609C288.344,97.64,287.778,97.843,286.996,97.843z"/>
		<path fill="#1A171B" d="M290.78,94.219v0.174c0,0.682,0.029,1.262,0.29,1.74c0.348,0.623,0.942,0.884,1.565,0.884
			c0.608,0,1.102-0.261,1.522-0.667l0.391,0.595c-0.551,0.58-1.305,0.898-2.116,0.898c-1.739,0-2.783-1.449-2.783-3.841
			c0-1.218,0.188-2.029,0.725-2.755c0.508-0.681,1.16-0.971,1.914-0.971c0.681,0,1.305,0.305,1.725,0.812
			c0.508,0.623,0.696,1.247,0.696,2.972v0.159H290.78z M293.39,91.697c-0.218-0.392-0.58-0.667-1.16-0.667
			c-0.985,0-1.405,0.956-1.449,2.449h2.885C293.65,92.697,293.578,92.045,293.39,91.697z"/>
		<path fill="#1A171B" d="M298.103,97.901c-0.797,0-1.667-0.275-2.305-0.726l0.405-0.753c0.638,0.449,1.276,0.681,1.972,0.681
			c0.769,0,1.275-0.565,1.275-1.333c0-0.652-0.536-1.001-1.13-1.218l-0.565-0.203c-0.957-0.348-1.711-0.942-1.711-1.942
			c0-1.305,0.928-2.218,2.232-2.218c0.652,0,1.377,0.231,1.913,0.58l-0.391,0.753c-0.551-0.304-1.001-0.521-1.552-0.521
			c-0.725,0-1.188,0.551-1.188,1.146c0,0.638,0.29,1.015,1.044,1.275l0.58,0.203c0.898,0.318,1.797,0.913,1.797,1.985
			C300.479,97.017,299.509,97.901,298.103,97.901z"/>
	</g>
	<g>
		<polyline fill="#BEE1E2" points="15.41,100.472 113.682,100.472 113.682,1.112 15.41,1.112 15.41,100.472 		"/>
		<path fill="#0097A0" d="M108.625,55.08c1.807-0.072,3.367-0.672,5.159-0.447c1.345,0.223,3.142,0.223,3.142,1.793
			c0.224,2.243-0.898,4.487-0.676,6.953c0,0.45,0.676,0.674,0.899,0.674c4.485,0.449,8.745-0.899,13.23-1.121
			c0.448,0,0.673,0.672,0.673,0.897c0,1.792,0.225,3.812-0.447,5.606c-1.57,4.485-2.691,8.97-5.607,12.784
			c-12.789,0.225-25.568-0.674-38.576,0.225c-6.057,0.449-12.111,0.449-18.168,1.12c-13.007,1.122-25.568,3.14-38.802,4.937
			c-5.382,0.672-10.539,1.568-15.476,3.812c-0.896,0.447-1.795,0.447-2.02,0c-2.016-3.812,0-7.848,0.225-11.889
			c0-0.447-0.672-0.225-0.896-0.225c-2.468,1.125-5.158,1.795-7.851,2.245c-1.121,0.449-2.916,0.675-2.916-0.45
			c-0.447-4.934,1.345-9.644,2.243-14.578c0-0.674,0.45-0.896,0.673-1.12c6.506-2.243,13.008-3.814,19.963-4.71
			c6.728-0.896,13.231-2.468,19.962-3.14C65.339,55.979,86.869,55.979,108.625,55.08"/>
		<g>
			
				<rect x="17.644" y="65.547" transform="matrix(0.9978 -0.0656 0.0656 0.9978 -4.8652 1.365)" fill="#FFFFFF" width="1.414" height="18.436"/>
			
				<rect x="63.68" y="62.441" transform="matrix(0.9977 -0.0683 0.0683 0.9977 -4.7412 4.5621)" fill="#FFFFFF" width="1.416" height="18.438"/>
			
				<rect x="109.716" y="59.327" transform="matrix(0.9977 -0.0675 0.0675 0.9977 -4.3764 7.6129)" fill="#FFFFFF" width="1.417" height="18.436"/>
			
				<rect x="22.37" y="65.273" transform="matrix(0.9978 -0.0662 0.0662 0.9978 -4.6487 1.6596)" fill="#FFFFFF" width="0.723" height="11.485"/>
			
				<rect x="26.965" y="64.928" transform="matrix(0.9977 -0.0675 0.0675 0.9977 -4.7083 2.0059)" fill="#FFFFFF" width="0.723" height="11.487"/>
			
				<rect x="31.563" y="64.619" transform="matrix(0.9978 -0.0661 0.0661 0.9978 -4.5792 2.2631)" fill="#FFFFFF" width="0.724" height="11.485"/>
			
				<rect x="36.176" y="64.32" transform="matrix(0.9978 -0.0661 0.0661 0.9978 -4.5494 2.5672)" fill="#FFFFFF" width="0.724" height="11.486"/>
			
				<rect x="45.386" y="63.713" transform="matrix(0.9977 -0.0674 0.0674 0.9977 -4.5782 3.2421)" fill="#FFFFFF" width="0.724" height="11.485"/>
			
				<rect x="49.985" y="63.397" transform="matrix(0.9975 -0.0703 0.0703 0.9975 -4.7351 3.7097)" fill="#FFFFFF" width="0.722" height="11.486"/>
			
				<rect x="54.58" y="63.057" transform="matrix(0.9977 -0.0674 0.0674 0.9977 -4.5131 3.8604)" fill="#FFFFFF" width="0.724" height="11.487"/>
			
				<rect x="59.193" y="62.759" transform="matrix(0.9976 -0.0689 0.0689 0.9976 -4.5809 4.2688)" fill="#FFFFFF" width="0.722" height="11.487"/>
			
				<rect x="40.717" y="64.01" transform="matrix(0.9976 -0.0688 0.0688 0.9976 -4.7849 3.0057)" fill="#FFFFFF" width="1.007" height="13.845"/>
			
				<rect x="86.747" y="60.88" transform="matrix(0.9978 -0.067 0.067 0.9978 -4.3489 6.0013)" fill="#FFFFFF" width="1.005" height="13.844"/>
			
				<rect x="68.387" y="62.124" transform="matrix(0.9979 -0.0647 0.0647 0.9979 -4.2487 4.5924)" fill="#FFFFFF" width="0.724" height="11.484"/>
			
				<rect x="73.016" y="61.808" transform="matrix(0.9977 -0.0675 0.0675 0.9977 -4.3926 5.1074)" fill="#FFFFFF" width="0.723" height="11.486"/>
			
				<rect x="77.608" y="61.496" transform="matrix(0.9976 -0.0688 0.0688 0.9976 -4.4443 5.5276)" fill="#FFFFFF" width="0.723" height="11.486"/>
			
				<rect x="82.212" y="61.2" transform="matrix(0.9975 -0.0703 0.0703 0.9975 -4.501 5.9693)" fill="#FFFFFF" width="0.722" height="11.487"/>
			
				<rect x="91.416" y="60.566" transform="matrix(0.9975 -0.0702 0.0702 0.9975 -4.4279 6.6056)" fill="#FFFFFF" width="0.723" height="11.485"/>
			
				<rect x="96.008" y="60.257" transform="matrix(0.9977 -0.0674 0.0674 0.9977 -4.23 6.6468)" fill="#FFFFFF" width="0.724" height="11.482"/>
			
				<rect x="105.224" y="59.635" transform="matrix(0.9976 -0.0688 0.0688 0.9976 -4.2506 7.4245)" fill="#FFFFFF" width="0.723" height="11.486"/>
			
				<rect x="100.614" y="59.938" transform="matrix(0.9978 -0.0661 0.0661 0.9978 -4.119 6.8152)" fill="#FFFFFF" width="0.724" height="11.486"/>
		</g>
		<g>
			<path fill="#37B5BB" d="M33.545,11.25C14.514,14.67,5.546,35.536,5.173,36.423c-1.38,3.289,0.161,7.068,3.445,8.459
				c3.286,1.395,7.085-0.145,8.487-3.423c0.066-0.153,6.668-15.295,18.73-17.464c12.105-2.178,23.679,9.569,23.795,9.688
				C60.243,34.377,76.015,50.557,95,47.144c19.032-3.422,27.998-24.288,28.371-25.173c1.383-3.29-0.158-7.069-3.445-8.461
				c-3.284-1.392-7.082,0.147-8.486,3.425c-0.063,0.152-6.668,15.295-18.732,17.463c-12.103,2.179-23.678-9.568-23.792-9.689
				C68.303,24.017,52.532,7.835,33.545,11.25z"/>
		</g>
	</g>
</g>
</svg>
